REM DIRINDEX 1\2\6,1\2\7,1\2\8,1\3\9,1\3\10,1\3\11,1\4\12,1\4\13,1\4\14,1\5\15,1\5\16,1\5\17,1\5\18
REM DIRNAME folder01,folder02,folder03,folder04,folder05,folder06,folder07,folder08,folder09,folder10,folder11,folder12,folder13,folder14,folder15,folder16,folder17,folder18
TITLE ""
FILE "2Q_j_1222-1235.mp3" MP3
  TRACK 01 AUDIO
    TITLE "6:cjc019_0128"
    INDEX 01 00:00:00
  TRACK 02 AUDIO
    TITLE "0:"
    INDEX 01 00:01:15
  TRACK 03 AUDIO
    TITLE "7:cjc019_0129"
    INDEX 01 00:02:04
  TRACK 04 AUDIO
    TITLE "0:"
    INDEX 01 00:04:72
  TRACK 05 AUDIO
    TITLE "8:cjc019_0130"
    INDEX 01 00:05:54
  TRACK 06 AUDIO
    TITLE "0:"
    INDEX 01 00:08:54
  TRACK 07 AUDIO
    TITLE "6:cjc019_0131"
    INDEX 01 00:09:42
  TRACK 08 AUDIO
    TITLE "0:"
    INDEX 01 00:10:57
  TRACK 09 AUDIO
    TITLE "7:cjc019_0132"
    INDEX 01 00:11:42
  TRACK 10 AUDIO
    TITLE "0:"
    INDEX 01 00:13:12
  TRACK 11 AUDIO
    TITLE "8:cjc019_0133"
    INDEX 01 00:13:63
  TRACK 12 AUDIO
    TITLE "0:"
    INDEX 01 00:16:53
  TRACK 13 AUDIO
    TITLE "6:cjc019_0134"
    INDEX 01 00:17:35
  TRACK 14 AUDIO
    TITLE "0:"
    INDEX 01 00:18:66
  TRACK 15 AUDIO
    TITLE "7:cjc019_0135"
    INDEX 01 00:19:48
  TRACK 16 AUDIO
    TITLE "0:"
    INDEX 01 00:21:47
  TRACK 17 AUDIO
    TITLE "8:cjc019_0136"
    INDEX 01 00:22:30
  TRACK 18 AUDIO
    TITLE "0:"
    INDEX 01 00:26:56
  TRACK 19 AUDIO
    TITLE "6:cjc019_0137"
    INDEX 01 00:27:36
  TRACK 20 AUDIO
    TITLE "0:"
    INDEX 01 00:28:70
  TRACK 21 AUDIO
    TITLE "7:cjc019_0138"
    INDEX 01 00:29:58
  TRACK 22 AUDIO
    TITLE "0:"
    INDEX 01 00:30:67
  TRACK 23 AUDIO
    TITLE "8:cjc019_0139"
    INDEX 01 00:31:47
  TRACK 24 AUDIO
    TITLE "0:"
    INDEX 01 00:35:59
  TRACK 25 AUDIO
    TITLE "6:cjc019_0140"
    INDEX 01 00:36:42
  TRACK 26 AUDIO
    TITLE "0:"
    INDEX 01 00:38:02
  TRACK 27 AUDIO
    TITLE "7:cjc019_0141"
    INDEX 01 00:38:69
  TRACK 28 AUDIO
    TITLE "0:"
    INDEX 01 00:40:21
  TRACK 29 AUDIO
    TITLE "8:cjc019_0142"
    INDEX 01 00:40:73
  TRACK 30 AUDIO
    TITLE "0:"
    INDEX 01 00:44:16
  TRACK 31 AUDIO
    TITLE "6:cjc019_0143"
    INDEX 01 00:45:00
  TRACK 32 AUDIO
    TITLE "0:"
    INDEX 01 00:46:39
  TRACK 33 AUDIO
    TITLE "7:cjc019_0144"
    INDEX 01 00:47:25
  TRACK 34 AUDIO
    TITLE "0:"
    INDEX 01 00:51:36
  TRACK 35 AUDIO
    TITLE "8:cjc019_0145"
    INDEX 01 00:52:12
  TRACK 36 AUDIO
    TITLE "0:"
    INDEX 01 00:54:68
  TRACK 37 AUDIO
    TITLE "6:cjc019_0146"
    INDEX 01 00:55:53
  TRACK 38 AUDIO
    TITLE "0:"
    INDEX 01 00:57:01
  TRACK 39 AUDIO
    TITLE "7:cjc019_0147"
    INDEX 01 00:57:62
  TRACK 40 AUDIO
    TITLE "0:"
    INDEX 01 00:59:08
  TRACK 41 AUDIO
    TITLE "8:cjc019_0148"
    INDEX 01 00:59:61
  TRACK 42 AUDIO
    TITLE "0:"
    INDEX 01 01:04:72
  TRACK 43 AUDIO
    TITLE "6:cjc019_0149"
    INDEX 01 01:05:50
  TRACK 44 AUDIO
    TITLE "0:"
    INDEX 01 01:07:21
  TRACK 45 AUDIO
    TITLE "7:cjc019_0150"
    INDEX 01 01:07:72
  TRACK 46 AUDIO
    TITLE "0:"
    INDEX 01 01:09:44
  TRACK 47 AUDIO
    TITLE "8:cjc019_0151"
    INDEX 01 01:10:28
  TRACK 48 AUDIO
    TITLE "0:"
    INDEX 01 01:14:45
  TRACK 49 AUDIO
    TITLE "6:cjc019_0152"
    INDEX 01 01:15:31
  TRACK 50 AUDIO
    TITLE "0:"
    INDEX 01 01:16:54
  TRACK 51 AUDIO
    TITLE "7:cjc019_0153"
    INDEX 01 01:17:41
  TRACK 52 AUDIO
    TITLE "0:"
    INDEX 01 01:21:37
  TRACK 53 AUDIO
    TITLE "8:cjc019_0154"
    INDEX 01 01:22:15
  TRACK 54 AUDIO
    TITLE "0:"
    INDEX 01 01:26:15
  TRACK 55 AUDIO
    TITLE "6:cjc019_0155"
    INDEX 01 01:26:70
  TRACK 56 AUDIO
    TITLE "0:"
    INDEX 01 01:28:14
  TRACK 57 AUDIO
    TITLE "7:cjc019_0156"
    INDEX 01 01:28:67
  TRACK 58 AUDIO
    TITLE "0:"
    INDEX 01 01:31:53
  TRACK 59 AUDIO
    TITLE "8:cjc019_0157"
    INDEX 01 01:32:31
  TRACK 60 AUDIO
    TITLE "0:"
    INDEX 01 01:40:56
  TRACK 61 AUDIO
    TITLE "6:cjc019_0158"
    INDEX 01 01:41:40
  TRACK 62 AUDIO
    TITLE "0:"
    INDEX 01 01:42:63
  TRACK 63 AUDIO
    TITLE "7:cjc019_0159"
    INDEX 01 01:43:47
  TRACK 64 AUDIO
    TITLE "0:"
    INDEX 01 01:45:53
  TRACK 65 AUDIO
    TITLE "8:cjc019_0160"
    INDEX 01 01:46:25
  TRACK 66 AUDIO
    TITLE "0:"
    INDEX 01 01:48:42
  TRACK 67 AUDIO
    TITLE "6:cjc019_0161"
    INDEX 01 01:49:20
  TRACK 68 AUDIO
    TITLE "0:"
    INDEX 01 01:50:47
  TRACK 69 AUDIO
    TITLE "7:cjc019_0162"
    INDEX 01 01:51:30
  TRACK 70 AUDIO
    TITLE "0:"
    INDEX 01 01:53:37
  TRACK 71 AUDIO
    TITLE "8:cjc019_0163"
    INDEX 01 01:54:15
  TRACK 72 AUDIO
    TITLE "0:"
    INDEX 01 02:01:27
  TRACK 73 AUDIO
    TITLE "6:cjc019_0164"
    INDEX 01 02:02:03
  TRACK 74 AUDIO
    TITLE "0:"
    INDEX 01 02:03:20
  TRACK 75 AUDIO
    TITLE "7:cjc019_0165"
    INDEX 01 02:04:06
  TRACK 76 AUDIO
    TITLE "0:"
    INDEX 01 02:05:72
  TRACK 77 AUDIO
    TITLE "8:cjc019_0166"
    INDEX 01 02:06:48
  TRACK 78 AUDIO
    TITLE "0:"
    INDEX 01 02:12:50
  TRACK 79 AUDIO
    TITLE "6:cjc019_0167"
    INDEX 01 02:13:30
  TRACK 80 AUDIO
    TITLE "0:"
    INDEX 01 02:14:37
  TRACK 81 AUDIO
    TITLE "7:cjc019_0168"
    INDEX 01 02:15:19
  TRACK 82 AUDIO
    TITLE "0:"
    INDEX 01 02:18:63
  TRACK 83 AUDIO
    TITLE "8:cjc019_0169"
    INDEX 01 02:19:39
  TRACK 84 AUDIO
    TITLE "0:"
    INDEX 01 02:22:45
